<svg width="570" height="570" viewBox="0 0 570 570" fill="none" xmlns="http://www.w3.org/2000/svg">
<g filter="url(#filter0_ii_1_268)">
<rect width="569.859" height="569.859" rx="123.882" fill="url(#paint0_linear_1_268)"/>
<rect width="569.859" height="569.859" rx="123.882" fill="url(#paint1_linear_1_268)" fill-opacity="0.2" style="mix-blend-mode:soft-light"/>
</g>
<g filter="url(#filter1_ddiiii_1_268)">
<path fill-rule="evenodd" clip-rule="evenodd" d="M284.929 461.145C392.118 461.145 479.012 377.327 479.012 273.931C479.012 170.536 392.118 86.7177 284.929 86.7177C177.741 86.7177 90.847 170.536 90.847 273.931C90.847 327.712 114.357 376.197 152.004 410.344C156.44 414.368 159.164 419.997 159.164 425.985V460.766C159.164 469.467 167.993 475.385 176.041 472.079L218.197 454.762C222.52 452.986 227.318 452.817 231.826 454.051C248.703 458.672 266.517 461.145 284.929 461.145Z" fill="#5AC7FF"/>
<path fill-rule="evenodd" clip-rule="evenodd" d="M284.929 461.145C392.118 461.145 479.012 377.327 479.012 273.931C479.012 170.536 392.118 86.7177 284.929 86.7177C177.741 86.7177 90.847 170.536 90.847 273.931C90.847 327.712 114.357 376.197 152.004 410.344C156.44 414.368 159.164 419.997 159.164 425.985V460.766C159.164 469.467 167.993 475.385 176.041 472.079L218.197 454.762C222.52 452.986 227.318 452.817 231.826 454.051C248.703 458.672 266.517 461.145 284.929 461.145Z" fill="url(#paint2_linear_1_268)"/>
<path fill-rule="evenodd" clip-rule="evenodd" d="M284.929 461.145C392.118 461.145 479.012 377.327 479.012 273.931C479.012 170.536 392.118 86.7177 284.929 86.7177C177.741 86.7177 90.847 170.536 90.847 273.931C90.847 327.712 114.357 376.197 152.004 410.344C156.44 414.368 159.164 419.997 159.164 425.985V460.766C159.164 469.467 167.993 475.385 176.041 472.079L218.197 454.762C222.52 452.986 227.318 452.817 231.826 454.051C248.703 458.672 266.517 461.145 284.929 461.145Z" fill="url(#paint3_linear_1_268)" fill-opacity="0.7"/>
</g>
<mask id="mask0_1_268" style="mask-type:alpha" maskUnits="userSpaceOnUse" x="90" y="86" width="390" height="388">
<path fill-rule="evenodd" clip-rule="evenodd" d="M284.929 461.145C392.118 461.145 479.012 377.327 479.012 273.931C479.012 170.536 392.118 86.7177 284.929 86.7177C177.741 86.7177 90.847 170.536 90.847 273.931C90.847 327.712 114.357 376.197 152.004 410.344C156.44 414.368 159.164 419.997 159.164 425.985V460.766C159.164 469.467 167.993 475.385 176.041 472.079L218.197 454.762C222.52 452.986 227.318 452.817 231.826 454.051C248.703 458.672 266.517 461.145 284.929 461.145Z" fill="#5AC7FF"/>
<path fill-rule="evenodd" clip-rule="evenodd" d="M284.929 461.145C392.118 461.145 479.012 377.327 479.012 273.931C479.012 170.536 392.118 86.7177 284.929 86.7177C177.741 86.7177 90.847 170.536 90.847 273.931C90.847 327.712 114.357 376.197 152.004 410.344C156.44 414.368 159.164 419.997 159.164 425.985V460.766C159.164 469.467 167.993 475.385 176.041 472.079L218.197 454.762C222.52 452.986 227.318 452.817 231.826 454.051C248.703 458.672 266.517 461.145 284.929 461.145Z" fill="url(#paint4_linear_1_268)"/>
<path fill-rule="evenodd" clip-rule="evenodd" d="M284.929 461.145C392.118 461.145 479.012 377.327 479.012 273.931C479.012 170.536 392.118 86.7177 284.929 86.7177C177.741 86.7177 90.847 170.536 90.847 273.931C90.847 327.712 114.357 376.197 152.004 410.344C156.44 414.368 159.164 419.997 159.164 425.985V460.766C159.164 469.467 167.993 475.385 176.041 472.079L218.197 454.762C222.52 452.986 227.318 452.817 231.826 454.051C248.703 458.672 266.517 461.145 284.929 461.145Z" fill="url(#paint5_linear_1_268)" fill-opacity="0.7"/>
</mask>
<g mask="url(#mask0_1_268)">
<g opacity="0.8" filter="url(#filter2_f_1_268)">
<path d="M159.827 460.89C157.193 436.76 161.745 420.819 156.147 414.778C163.01 405.318 170.682 418.709 174.998 420.728C176.753 429.961 177.613 461.183 168.231 470.839C159.915 472.563 159.848 463.67 159.827 460.89L159.827 460.89Z" fill="white" fill-opacity="0.51"/>
</g>
<g filter="url(#filter3_f_1_268)">
<path d="M172.889 470.035C174.974 459.089 176.225 435.568 172.889 421.114L214.027 441.683C216.377 457.107 191.791 466.699 172.889 470.035Z" fill="url(#paint6_linear_1_268)" fill-opacity="0.08"/>
</g>
</g>
<g filter="url(#filter4_dii_1_268)">
<path d="M306.376 315.888L263.565 282.961C258.065 278.73 250.4 278.749 244.92 283.006L188.927 326.503C182.209 331.721 173.286 323.681 177.779 316.458L234.695 224.956C241.61 213.838 256.748 211.382 266.824 219.743L308.959 254.709C314.635 259.419 322.869 259.39 328.511 254.639L384.856 207.205C391.506 201.607 400.839 209.718 396.223 217.084L337.841 310.238C331.074 321.036 316.477 323.657 306.376 315.888Z" fill="white"/>
</g>
<defs>
<filter id="filter0_ii_1_268" x="-4.44733" y="-4.44733" width="578.753" height="578.753" filterUnits="userSpaceOnUse" color-interpolation-filters="sRGB">
<feFlood flood-opacity="0" result="BackgroundImageFix"/>
<feBlend mode="normal" in="SourceGraphic" in2="BackgroundImageFix" result="shape"/>
<feColorMatrix in="SourceAlpha" type="matrix" values="0 0 0 0 0 0 0 0 0 0 0 0 0 0 0 0 0 0 127 0" result="hardAlpha"/>
<feOffset dx="4.44733" dy="4.44733"/>
<feGaussianBlur stdDeviation="2.22366"/>
<feComposite in2="hardAlpha" operator="arithmetic" k2="-1" k3="1"/>
<feColorMatrix type="matrix" values="0 0 0 0 1 0 0 0 0 1 0 0 0 0 1 0 0 0 0.2 0"/>
<feBlend mode="normal" in2="shape" result="effect1_innerShadow_1_268"/>
<feColorMatrix in="SourceAlpha" type="matrix" values="0 0 0 0 0 0 0 0 0 0 0 0 0 0 0 0 0 0 127 0" result="hardAlpha"/>
<feOffset dx="-4.44733" dy="-4.44733"/>
<feGaussianBlur stdDeviation="2.22366"/>
<feComposite in2="hardAlpha" operator="arithmetic" k2="-1" k3="1"/>
<feColorMatrix type="matrix" values="0 0 0 0 0 0 0 0 0 0 0 0 0 0 0 0 0 0 0.05 0"/>
<feBlend mode="normal" in2="effect1_innerShadow_1_268" result="effect2_innerShadow_1_268"/>
</filter>
<filter id="filter1_ddiiii_1_268" x="41.9264" y="24.455" width="486.006" height="535.276" filterUnits="userSpaceOnUse" color-interpolation-filters="sRGB">
<feFlood flood-opacity="0" result="BackgroundImageFix"/>
<feColorMatrix in="SourceAlpha" type="matrix" values="0 0 0 0 0 0 0 0 0 0 0 0 0 0 0 0 0 0 127 0" result="hardAlpha"/>
<feOffset dy="37.8023"/>
<feGaussianBlur stdDeviation="24.4603"/>
<feColorMatrix type="matrix" values="0 0 0 0 0 0 0 0 0 0 0 0 0 0 0 0 0 0 0.2 0"/>
<feBlend mode="normal" in2="BackgroundImageFix" result="effect1_dropShadow_1_268"/>
<feColorMatrix in="SourceAlpha" type="matrix" values="0 0 0 0 0 0 0 0 0 0 0 0 0 0 0 0 0 0 127 0" result="hardAlpha"/>
<feOffset dy="11.1183"/>
<feGaussianBlur stdDeviation="8.89466"/>
<feColorMatrix type="matrix" values="0 0 0 0 0 0 0 0 0 0 0 0 0 0 0 0 0 0 0.2 0"/>
<feBlend mode="normal" in2="effect1_dropShadow_1_268" result="effect2_dropShadow_1_268"/>
<feBlend mode="normal" in="SourceGraphic" in2="effect2_dropShadow_1_268" result="shape"/>
<feColorMatrix in="SourceAlpha" type="matrix" values="0 0 0 0 0 0 0 0 0 0 0 0 0 0 0 0 0 0 127 0" result="hardAlpha"/>
<feOffset dy="-62.2626"/>
<feGaussianBlur stdDeviation="55.5916"/>
<feComposite in2="hardAlpha" operator="arithmetic" k2="-1" k3="1"/>
<feColorMatrix type="matrix" values="0 0 0 0 0 0 0 0 0 0 0 0 0 0 0 0 0 0 0.2 0"/>
<feBlend mode="normal" in2="shape" result="effect3_innerShadow_1_268"/>
<feColorMatrix in="SourceAlpha" type="matrix" values="0 0 0 0 0 0 0 0 0 0 0 0 0 0 0 0 0 0 127 0" result="hardAlpha"/>
<feOffset dy="-16.6775"/>
<feGaussianBlur stdDeviation="5.55916"/>
<feComposite in2="hardAlpha" operator="arithmetic" k2="-1" k3="1"/>
<feColorMatrix type="matrix" values="0 0 0 0 1 0 0 0 0 1 0 0 0 0 1 0 0 0 0.45 0"/>
<feBlend mode="normal" in2="effect3_innerShadow_1_268" result="effect4_innerShadow_1_268"/>
<feColorMatrix in="SourceAlpha" type="matrix" values="0 0 0 0 0 0 0 0 0 0 0 0 0 0 0 0 0 0 127 0" result="hardAlpha"/>
<feOffset dy="-27.7958"/>
<feGaussianBlur stdDeviation="22.2366"/>
<feComposite in2="hardAlpha" operator="arithmetic" k2="-1" k3="1"/>
<feColorMatrix type="matrix" values="0 0 0 0 0.0338542 0 0 0 0 0.514019 0 0 0 0 0.8125 0 0 0 1 0"/>
<feBlend mode="normal" in2="effect4_innerShadow_1_268" result="effect5_innerShadow_1_268"/>
<feColorMatrix in="SourceAlpha" type="matrix" values="0 0 0 0 0 0 0 0 0 0 0 0 0 0 0 0 0 0 127 0" result="hardAlpha"/>
<feOffset dy="-11.1183"/>
<feGaussianBlur stdDeviation="31.7634"/>
<feComposite in2="hardAlpha" operator="arithmetic" k2="-1" k3="1"/>
<feColorMatrix type="matrix" values="0 0 0 0 1 0 0 0 0 1 0 0 0 0 1 0 0 0 0.22 0"/>
<feBlend mode="normal" in2="effect5_innerShadow_1_268" result="effect6_innerShadow_1_268"/>
</filter>
<filter id="filter2_f_1_268" x="146.213" y="401.497" width="39.8325" height="79.4956" filterUnits="userSpaceOnUse" color-interpolation-filters="sRGB">
<feFlood flood-opacity="0" result="BackgroundImageFix"/>
<feBlend mode="normal" in="SourceGraphic" in2="BackgroundImageFix" result="shape"/>
<feGaussianBlur stdDeviation="4.96711" result="effect1_foregroundBlur_1_268"/>
</filter>
<filter id="filter3_f_1_268" x="162.955" y="411.18" width="61.1627" height="68.7891" filterUnits="userSpaceOnUse" color-interpolation-filters="sRGB">
<feFlood flood-opacity="0" result="BackgroundImageFix"/>
<feBlend mode="normal" in="SourceGraphic" in2="BackgroundImageFix" result="shape"/>
<feGaussianBlur stdDeviation="4.96711" result="effect1_foregroundBlur_1_268"/>
</filter>
<filter id="filter4_dii_1_268" x="127.643" y="183.105" width="318.736" height="220.671" filterUnits="userSpaceOnUse" color-interpolation-filters="sRGB">
<feFlood flood-opacity="0" result="BackgroundImageFix"/>
<feColorMatrix in="SourceAlpha" type="matrix" values="0 0 0 0 0 0 0 0 0 0 0 0 0 0 0 0 0 0 127 0" result="hardAlpha"/>
<feOffset dy="26.684"/>
<feGaussianBlur stdDeviation="24.4603"/>
<feColorMatrix type="matrix" values="0 0 0 0 0 0 0 0 0 0 0 0 0 0 0 0 0 0 0.25 0"/>
<feBlend mode="normal" in2="BackgroundImageFix" result="effect1_dropShadow_1_268"/>
<feBlend mode="normal" in="SourceGraphic" in2="effect1_dropShadow_1_268" result="shape"/>
<feColorMatrix in="SourceAlpha" type="matrix" values="0 0 0 0 0 0 0 0 0 0 0 0 0 0 0 0 0 0 127 0" result="hardAlpha"/>
<feOffset dy="-17.7893"/>
<feGaussianBlur stdDeviation="11.1183"/>
<feComposite in2="hardAlpha" operator="arithmetic" k2="-1" k3="1"/>
<feColorMatrix type="matrix" values="0 0 0 0 0.0716667 0 0 0 0 0.498639 0 0 0 0 0.716667 0 0 0 0.29 0"/>
<feBlend mode="normal" in2="shape" result="effect2_innerShadow_1_268"/>
<feColorMatrix in="SourceAlpha" type="matrix" values="0 0 0 0 0 0 0 0 0 0 0 0 0 0 0 0 0 0 127 0" result="hardAlpha"/>
<feOffset dy="-6.67099"/>
<feGaussianBlur stdDeviation="4.44733"/>
<feComposite in2="hardAlpha" operator="arithmetic" k2="-1" k3="1"/>
<feColorMatrix type="matrix" values="0 0 0 0 1 0 0 0 0 1 0 0 0 0 1 0 0 0 0.75 0"/>
<feBlend mode="normal" in2="effect2_innerShadow_1_268" result="effect3_innerShadow_1_268"/>
</filter>
<linearGradient id="paint0_linear_1_268" x1="284.929" y1="0" x2="284.929" y2="569.859" gradientUnits="userSpaceOnUse">
<stop stop-color="white"/>
<stop offset="1" stop-color="#E9E9E9"/>
</linearGradient>
<linearGradient id="paint1_linear_1_268" x1="284.929" y1="0" x2="284.929" y2="569.859" gradientUnits="userSpaceOnUse">
<stop offset="0.328125" stop-color="white"/>
<stop offset="1" stop-opacity="0.1"/>
</linearGradient>
<linearGradient id="paint2_linear_1_268" x1="285.227" y1="-54.1658" x2="285.227" y2="391.835" gradientUnits="userSpaceOnUse">
<stop offset="0.00520833" stop-color="white" stop-opacity="0.08"/>
<stop offset="0.0851933" stop-opacity="0.08"/>
<stop offset="0.336988" stop-color="white" stop-opacity="0.1"/>
<stop offset="0.660917" stop-color="white" stop-opacity="0.1"/>
<stop offset="1" stop-opacity="0.1"/>
</linearGradient>
<linearGradient id="paint3_linear_1_268" x1="284.929" y1="86.7177" x2="284.929" y2="479.012" gradientUnits="userSpaceOnUse">
<stop stop-color="#52B6FF"/>
<stop offset="1" stop-color="white" stop-opacity="0"/>
</linearGradient>
<linearGradient id="paint4_linear_1_268" x1="285.227" y1="-54.1658" x2="285.227" y2="391.835" gradientUnits="userSpaceOnUse">
<stop offset="0.00520833" stop-color="white" stop-opacity="0.08"/>
<stop offset="0.0851933" stop-opacity="0.08"/>
<stop offset="0.336988" stop-color="white" stop-opacity="0.1"/>
<stop offset="0.660917" stop-color="white" stop-opacity="0.1"/>
<stop offset="1" stop-opacity="0.1"/>
</linearGradient>
<linearGradient id="paint5_linear_1_268" x1="284.929" y1="86.7177" x2="284.929" y2="479.012" gradientUnits="userSpaceOnUse">
<stop stop-color="#52B6FF"/>
<stop offset="1" stop-color="white" stop-opacity="0"/>
</linearGradient>
<linearGradient id="paint6_linear_1_268" x1="189.882" y1="424.305" x2="179.85" y2="463.869" gradientUnits="userSpaceOnUse">
<stop/>
<stop offset="1"/>
</linearGradient>
</defs>
</svg>
